<svg width="150" height="30" viewBox="0 0 150 30" fill="none" xmlns="http://www.w3.org/2000/svg">
<path d="M0.921509 0H6.92151V8.79776C8.48888 7.96917 10.2756 7.5 12.1719 7.5C18.1331 7.5 23.0113 12.1365 23.3973 18H23.4215V18.6583C23.4218 18.6888 23.4219 18.7194 23.4219 18.75C23.4219 18.7806 23.4218 18.8112 23.4215 18.8417V30H17.4215V18.8565C17.4218 18.8417 17.4213 18.8269 17.4215 18.8121V18.6878C17.3882 15.817 15.0506 13.5 12.1719 13.5C9.27237 13.5 6.92187 15.8505 6.92187 18.75C6.92187 18.7856 6.92222 18.8211 6.92293 18.8565L6.92151 30H0.921509V0Z" fill="#BB342F"/>
<path fill-rule="evenodd" clip-rule="evenodd" d="M46.6243 13.5H46.6365L46.6244 13.4917L50.7502 7.5H35.9219V7.5246C30.0584 7.91054 25.4219 12.7888 25.4219 18.75C25.4219 24.9632 30.4587 30 36.6719 30C42.8851 30 47.9219 24.9632 47.9219 18.75C47.9219 16.8539 47.4528 15.0673 46.6243 13.5ZM36.664 13.5H36.6797C39.5756 13.5042 41.9219 15.8531 41.9219 18.75C41.9219 21.6495 39.5714 24 36.6719 24C33.7724 24 31.4219 21.6495 31.4219 18.75C31.4219 15.8531 33.7681 13.5042 36.664 13.5Z" fill="#BB342F"/>
<path d="M55.7502 7.5L52.7502 10.5V30H58.7502V13.5H64.7502V7.5H55.7502Z" fill="#BB342F"/>
<path d="M69.7502 0C68.0933 0 66.7502 1.34315 66.7502 3C66.7502 4.65685 68.0933 6 69.7502 6C71.407 6 72.7502 4.65685 72.7502 3C72.7502 1.34315 71.407 0 69.7502 0Z" fill="#BB342F"/>
<path d="M72.7502 30V7.5H66.7502V30H72.7502Z" fill="#BB342F"/>
<path d="M74.7502 7.5H97.2502V13.5H95.7502L82.2502 24H97.2502V30H74.7502V24H76.2502L89.7502 13.5H74.7502V7.5Z" fill="#BB342F"/>
<path d="M76.2502 26.25H95.7502V27.75H76.2502V26.25Z" fill="#F7F7F9"/>
<path d="M76.2502 9.75002H95.7502V11.25H76.2502V9.75002Z" fill="#F7F7F9"/>
<path d="M95.7537 11.251L94.2602 11.251L76.26 26.2445H77.76L95.7537 11.251Z" fill="#F7F7F9"/>
<path fill-rule="evenodd" clip-rule="evenodd" d="M120.453 13.5H120.465L120.453 13.4917L124.578 7.5H109.75V7.5246C103.887 7.91054 99.2502 12.7888 99.2502 18.75C99.2502 24.9632 104.287 30 110.5 30C116.713 30 121.75 24.9632 121.75 18.75C121.75 16.8539 121.281 15.0673 120.453 13.5ZM110.492 13.5H110.508C113.404 13.5042 115.75 15.8531 115.75 18.75C115.75 21.6495 113.4 24 110.5 24C107.601 24 105.25 21.6495 105.25 18.75C105.25 15.8531 107.596 13.5042 110.492 13.5Z" fill="#BB342F"/>
<path fill-rule="evenodd" clip-rule="evenodd" d="M132.578 7.5H126.578V18.75V30H132.578V18.8079H132.579L132.578 18.7511V18.7422C132.583 15.8463 134.932 13.5 137.828 13.5C140.728 13.5 143.078 15.8505 143.078 18.75L143.078 18.8079L143.078 30H149.078V18.75C149.078 12.5368 144.042 7.5 137.828 7.5C135.932 7.5 134.146 7.9691 132.578 8.79757V7.5Z" fill="#BB342F"/>
</svg>
